Description:
Live at Home is a live concert DVD released in 2002 filmed in Nickelback's home province of Alberta, Canada during the tour supporting their album Silver Side Up. 

More Info Here 
http://www.imdb.com/title/tt0395224/

See Track listings on enclosed Text File with torrent.

File Description:
Complete name Nickelback - Live at home DVDNickelback live Edmonton, Canada Feb 25th 2002(live at home).avi
Format : AVI
Format/Info : Audio Video Interleave
File size : 604 MiB
Duration : 1h 16mn
Overall bit rate : 1 105 Kbps

Video
ID : 0
Format : MPEG-4 Visual
Format profile : Simple@L3
Format settings, BVOP : Yes
Format settings, QPel : No
Format settings, GMC : No warppoints
Format settings, Matrix : Default (H.263)
Codec ID : XVID
Codec ID/Hint : XviD
Duration : 1h 16mn
Bit rate : 900 Kbps
Width : 720 pixels
Height : 480 pixels
Display aspect ratio : 3:2
Frame rate : 29.970 fps
Standard : NTSC
Color space : YUV
Chroma subsampling : 4:2:0
Bit depth : 8 bits
Scan type : Progressive
Bits/(Pixel*Frame) : 0.087
Stream size : 492 MiB (81%)

Audio
ID : 1
Format : MPEG Audio
Format version : Version 1
Format profile : Layer 3
Mode : Joint stereo
Mode extension : MS Stereo
Codec ID : 55
Codec ID/Hint : MP3
Duration : 1h 16mn
Bit rate mode : Constant
Bit rate : 192 Kbps
Channel(s) : 2 channels
Sampling rate : 44.1 KHz
Stream size : 105 MiB (17%)
Alignment : Aligned on interleaves
Interleave, duration : 26 ms (0.78 video frame)
Writing library : LAME3.97


Another Sledgeka Quality DVD Rip.. Rock on Dudes!!